<svg xmlns="http://www.w3.org/2000/svg" width="88" height="31" viewBox="0 0 88 31" role="img" aria-label="AIA 2x3 · Directed: some AI ideas, mostly AI writing"><title>AIA 2x3 · Directed: some AI ideas, mostly AI writing</title><rect x="0.5" y="0.5" width="87" height="30" rx="3" fill="#FFFFFF" stroke="#888780"/><rect x="5" y="5" width="6" height="6" rx="1.08" fill="#D9D7CF"/><rect x="12.5" y="5" width="6" height="6" rx="1.08" fill="#D9D7CF"/><rect x="20" y="5" width="6" height="6" rx="1.08" fill="#D9D7CF"/><rect x="5" y="12.5" width="6" height="6" rx="1.08" fill="#D9D7CF"/><rect x="12.5" y="12.5" width="6" height="6" rx="1.08" fill="#D9D7CF"/><rect x="20" y="12.5" width="6" height="6" rx="1.08" fill="#2C2C2A"/><rect x="5" y="20" width="6" height="6" rx="1.08" fill="#D9D7CF"/><rect x="12.5" y="20" width="6" height="6" rx="1.08" fill="#D9D7CF"/><rect x="20" y="20" width="6" height="6" rx="1.08" fill="#D9D7CF"/><path fill="#5F5E5A" d="M32.09 13L31.19 13L33.13 7.54L34.15 7.54L36.13 13L35.23 13L34.72 11.56L32.58 11.56L32.09 13M32.82 10.86L34.48 10.86L34.16 9.96Q34.04 9.59 33.89 9.09Q33.78 8.70 33.64 8.20Q33.50 8.71 33.38 9.10Q33.23 9.61 33.12 9.96M36.92 7.54L37.76 7.54L37.76 13L36.92 13M39.45 13L38.55 13L40.49 7.54L41.51 7.54L43.49 13L42.59 13L42.09 11.56L39.94 11.56L39.45 13M40.18 10.86L41.84 10.86L41.52 9.96Q41.40 9.59 41.25 9.09Q41.14 8.70 41 8.20Q40.86 8.71 40.74 9.10Q40.59 9.61 40.48 9.96M49.81 13L46.21 13L46.21 12.40L48.06 10.48Q48.34 10.18 48.53 9.95Q48.72 9.72 48.82 9.51Q48.92 9.29 48.92 9.05Q48.92 8.78 48.80 8.58Q48.67 8.38 48.45 8.28Q48.23 8.17 47.96 8.17Q47.67 8.17 47.45 8.29Q47.23 8.41 47.12 8.62Q47 8.84 47 9.13L46.20 9.13Q46.20 8.63 46.43 8.26Q46.66 7.88 47.06 7.68Q47.46 7.47 47.97 7.47Q48.49 7.47 48.88 7.68Q49.28 7.88 49.50 8.23Q49.72 8.58 49.72 9.02Q49.72 9.32 49.61 9.61Q49.50 9.89 49.22 10.25Q48.94 10.61 48.43 11.13L47.36 12.24L47.36 12.29L49.81 12.29M51.41 13L50.51 13L51.91 10.90L50.59 8.91L51.50 8.91L51.96 9.65Q52.15 9.96 52.30 10.24Q52.35 10.35 52.41 10.45Q52.46 10.35 52.51 10.24Q52.64 9.96 52.84 9.65L53.31 8.91L54.21 8.91L52.87 10.93L54.27 13L53.36 13L52.82 12.13Q52.62 11.82 52.48 11.55Q52.43 11.45 52.38 11.36Q52.33 11.45 52.28 11.55Q52.15 11.82 51.96 12.13M56.83 13.07Q56.28 13.07 55.85 12.88Q55.42 12.69 55.17 12.36Q54.92 12.02 54.90 11.57L55.75 11.57Q55.77 11.81 55.91 11.99Q56.06 12.17 56.29 12.26Q56.53 12.36 56.83 12.36Q57.15 12.36 57.39 12.25Q57.64 12.14 57.78 11.94Q57.92 11.74 57.92 11.47Q57.92 11.20 57.78 10.99Q57.64 10.78 57.38 10.67Q57.11 10.55 56.74 10.55L56.27 10.55L56.27 9.87L56.74 9.87Q57.04 9.87 57.27 9.76Q57.50 9.65 57.63 9.46Q57.76 9.26 57.76 9Q57.76 8.75 57.64 8.57Q57.53 8.38 57.32 8.27Q57.12 8.17 56.84 8.17Q56.58 8.17 56.35 8.27Q56.12 8.36 55.98 8.54Q55.83 8.72 55.82 8.96L55.02 8.96Q55.03 8.52 55.28 8.18Q55.53 7.85 55.94 7.66Q56.35 7.47 56.85 7.47Q57.38 7.47 57.76 7.68Q58.15 7.88 58.36 8.22Q58.57 8.56 58.57 8.96Q58.57 9.42 58.31 9.74Q58.06 10.05 57.63 10.17L57.63 10.21Q57.99 10.26 58.25 10.44Q58.50 10.62 58.63 10.89Q58.77 11.16 58.77 11.50Q58.77 11.95 58.52 12.31Q58.27 12.66 57.83 12.87Q57.39 13.07 56.83 13.07"/><path fill="#2C2C2A" d="M34.19 24L31.73 24L31.73 16.72L34.24 16.72Q35.33 16.72 36.10 17.16Q36.88 17.59 37.30 18.41Q37.71 19.22 37.71 20.35Q37.71 21.49 37.30 22.31Q36.88 23.13 36.09 23.56Q35.30 24 34.19 24M33.04 17.85L33.04 22.87L34.13 22.87Q34.89 22.87 35.40 22.59Q35.91 22.31 36.17 21.75Q36.43 21.19 36.43 20.35Q36.43 19.52 36.17 18.97Q35.91 18.41 35.41 18.13Q34.91 17.85 34.16 17.85M40.17 24L38.90 24L38.90 18.54L40.17 18.54L40.17 24M39.53 17.77Q39.23 17.77 39.01 17.56Q38.79 17.36 38.79 17.08Q38.79 16.78 39.01 16.58Q39.23 16.38 39.53 16.38Q39.84 16.38 40.06 16.58Q40.27 16.78 40.27 17.07Q40.27 17.36 40.06 17.56Q39.84 17.77 39.53 17.77M42.78 24L41.51 24L41.51 18.54L42.74 18.54L42.74 19.45L42.80 19.45Q42.95 18.98 43.31 18.72Q43.68 18.47 44.15 18.47Q44.26 18.47 44.39 18.48Q44.52 18.49 44.61 18.50L44.61 19.67Q44.54 19.64 44.36 19.63Q44.18 19.61 44.01 19.61Q43.66 19.61 43.38 19.76Q43.10 19.91 42.94 20.17Q42.78 20.44 42.78 20.79M47.89 24.11Q47.07 24.11 46.48 23.77Q45.88 23.42 45.56 22.79Q45.24 22.16 45.24 21.30Q45.24 20.46 45.56 19.83Q45.87 19.19 46.45 18.83Q47.03 18.47 47.81 18.47Q48.31 18.47 48.76 18.63Q49.21 18.79 49.56 19.13Q49.91 19.47 50.11 19.99Q50.31 20.51 50.31 21.23L50.31 21.63L46.50 21.63Q46.52 22.08 46.68 22.40Q46.85 22.75 47.17 22.94Q47.49 23.12 47.91 23.12Q48.19 23.12 48.41 23.04Q48.64 22.96 48.81 22.80Q48.97 22.64 49.06 22.41L50.22 22.65Q50.09 23.09 49.77 23.42Q49.46 23.75 48.98 23.93Q48.50 24.11 47.89 24.11M46.51 20.76L49.07 20.76Q49.04 20.46 48.94 20.21Q48.80 19.86 48.52 19.66Q48.24 19.47 47.82 19.47Q47.40 19.47 47.10 19.67Q46.81 19.86 46.66 20.19Q46.54 20.46 46.51 20.76M53.76 24.11Q52.97 24.11 52.38 23.76Q51.80 23.40 51.48 22.77Q51.16 22.14 51.16 21.30Q51.16 20.45 51.48 19.81Q51.80 19.18 52.38 18.82Q52.97 18.47 53.76 18.47Q54.22 18.47 54.61 18.59Q55 18.71 55.31 18.93Q55.61 19.15 55.82 19.47Q56.03 19.79 56.12 20.19L54.93 20.44Q54.88 20.23 54.78 20.05Q54.68 19.88 54.53 19.76Q54.38 19.63 54.19 19.57Q54 19.50 53.77 19.50Q53.33 19.50 53.04 19.74Q52.74 19.98 52.60 20.38Q52.45 20.78 52.45 21.29Q52.45 21.80 52.60 22.20Q52.74 22.61 53.04 22.85Q53.33 23.08 53.77 23.08Q54.01 23.08 54.20 23.01Q54.39 22.95 54.54 22.82Q54.69 22.69 54.79 22.51Q54.90 22.33 54.95 22.11L56.13 22.36Q56.04 22.77 55.84 23.09Q55.63 23.41 55.32 23.64Q55.01 23.87 54.62 23.99Q54.22 24.11 53.76 24.11M58.69 18.54L59.75 18.54L59.75 19.54L58.69 19.54L58.69 22.46Q58.69 22.76 58.82 22.90Q58.94 23.04 59.23 23.04Q59.32 23.04 59.46 23.02Q59.61 22.99 59.70 22.97L59.90 23.96Q59.69 24.02 59.47 24.05Q59.25 24.07 59.05 24.07Q58.26 24.07 57.84 23.68Q57.42 23.29 57.42 22.57L57.42 19.54L56.64 19.54L56.64 18.54L57.42 18.54L57.42 17.24L58.69 17.24M63.16 24.11Q62.34 24.11 61.74 23.77Q61.15 23.42 60.83 22.79Q60.51 22.16 60.51 21.30Q60.51 20.46 60.83 19.83Q61.14 19.19 61.72 18.83Q62.30 18.47 63.08 18.47Q63.58 18.47 64.03 18.63Q64.48 18.79 64.83 19.13Q65.18 19.47 65.38 19.99Q65.58 20.51 65.58 21.23L65.58 21.63L61.77 21.63Q61.79 22.08 61.95 22.40Q62.12 22.75 62.44 22.94Q62.76 23.12 63.18 23.12Q63.46 23.12 63.68 23.04Q63.91 22.96 64.08 22.80Q64.24 22.64 64.33 22.41L65.49 22.65Q65.36 23.09 65.04 23.42Q64.73 23.75 64.25 23.93Q63.77 24.11 63.16 24.11M61.78 20.76L64.34 20.76Q64.31 20.46 64.21 20.21Q64.07 19.86 63.79 19.66Q63.50 19.47 63.08 19.47Q62.67 19.47 62.37 19.67Q62.08 19.86 61.93 20.19Q61.81 20.46 61.78 20.76M68.68 24.10Q68.03 24.10 67.52 23.77Q67.01 23.44 66.72 22.81Q66.42 22.18 66.42 21.28Q66.42 20.37 66.73 19.74Q67.03 19.12 67.54 18.79Q68.05 18.47 68.67 18.47Q69.16 18.47 69.47 18.64Q69.78 18.80 69.96 19.02Q70.15 19.25 70.24 19.44L70.29 19.44L70.29 16.72L71.56 16.72L71.56 24L70.32 24L70.32 23.14L70.24 23.14Q70.14 23.33 69.95 23.56Q69.76 23.78 69.46 23.94Q69.15 24.10 68.68 24.10M69.02 23.05Q69.44 23.05 69.73 22.83Q70.01 22.61 70.17 22.21Q70.32 21.81 70.32 21.28Q70.32 20.74 70.17 20.35Q70.02 19.96 69.73 19.74Q69.44 19.52 69.02 19.52Q68.59 19.52 68.30 19.74Q68.02 19.97 67.87 20.37Q67.72 20.77 67.72 21.28Q67.72 21.78 67.87 22.19Q68.02 22.59 68.31 22.82Q68.60 23.05 69.02 23.05"/></svg>
