<svg xmlns="http://www.w3.org/2000/svg" width="100" height="19" viewBox="0 0 100 19" role="img" aria-label="AIA 2x3 · Directed: some AI ideas, mostly AI writing"><title>AIA 2x3 · Directed: some AI ideas, mostly AI writing</title><rect x="0.5" y="0.5" width="99" height="18" rx="2.5" fill="#FFFFFF" stroke="#888780"/><rect x="4" y="2.5" width="4" height="4" rx="0.72" fill="#D9D7CF"/><rect x="9" y="2.5" width="4" height="4" rx="0.72" fill="#D9D7CF"/><rect x="14" y="2.5" width="4" height="4" rx="0.72" fill="#D9D7CF"/><rect x="4" y="7.5" width="4" height="4" rx="0.72" fill="#D9D7CF"/><rect x="9" y="7.5" width="4" height="4" rx="0.72" fill="#D9D7CF"/><rect x="14" y="7.5" width="4" height="4" rx="0.72" fill="#2C2C2A"/><rect x="4" y="12.5" width="4" height="4" rx="0.72" fill="#D9D7CF"/><rect x="9" y="12.5" width="4" height="4" rx="0.72" fill="#D9D7CF"/><rect x="14" y="12.5" width="4" height="4" rx="0.72" fill="#D9D7CF"/><path fill="#5F5E5A" d="M41.55 13.40L40.34 13.40L42.93 6.12L44.30 6.12L46.94 13.40L45.73 13.40L45.06 11.48L42.20 11.48L41.55 13.40M42.52 10.55L44.73 10.55L44.31 9.35Q44.15 8.86 43.95 8.19Q43.80 7.67 43.61 7Q43.43 7.68 43.27 8.20Q43.07 8.88 42.92 9.35M47.99 6.12L49.10 6.12L49.10 13.40L47.99 13.40M51.37 13.40L50.16 13.40L52.75 6.12L54.11 6.12L56.75 13.40L55.54 13.40L54.88 11.48L52.01 11.48L51.37 13.40M52.33 10.55L54.55 10.55L54.13 9.35Q53.96 8.86 53.77 8.19Q53.61 7.67 53.43 7Q53.24 7.68 53.09 8.20Q52.89 8.88 52.74 9.35"/><path fill="#2C2C2A" d="M66.13 13.40L61.15 13.40L61.15 12.46L63.68 9.98Q64.04 9.61 64.28 9.33Q64.52 9.04 64.64 8.78Q64.77 8.51 64.77 8.20Q64.77 7.86 64.61 7.61Q64.45 7.36 64.18 7.23Q63.91 7.09 63.56 7.09Q63.20 7.09 62.92 7.24Q62.65 7.38 62.51 7.66Q62.36 7.93 62.36 8.30L61.12 8.30Q61.12 7.61 61.43 7.10Q61.75 6.59 62.30 6.31Q62.85 6.03 63.58 6.03Q64.30 6.03 64.86 6.30Q65.41 6.57 65.71 7.05Q66.02 7.53 66.02 8.14Q66.02 8.54 65.87 8.93Q65.72 9.31 65.33 9.80Q64.94 10.28 64.23 10.97L62.96 12.26L62.96 12.31L66.13 12.31M68.35 13.40L66.97 13.40L68.78 10.60L67.08 7.94L68.48 7.94L69.04 8.87Q69.28 9.28 69.47 9.68Q69.53 9.81 69.60 9.94Q69.66 9.81 69.72 9.68Q69.90 9.28 70.15 8.87L70.72 7.94L72.09 7.94L70.36 10.63L72.17 13.40L70.79 13.40L70.11 12.31Q69.87 11.89 69.68 11.50Q69.62 11.38 69.56 11.26Q69.50 11.38 69.45 11.50Q69.26 11.89 69.02 12.31M75.60 13.50Q74.83 13.50 74.24 13.23Q73.64 12.97 73.30 12.50Q72.96 12.04 72.94 11.43L74.25 11.43Q74.27 11.73 74.45 11.94Q74.63 12.16 74.93 12.28Q75.23 12.40 75.60 12.40Q75.99 12.40 76.29 12.27Q76.59 12.13 76.76 11.88Q76.94 11.64 76.94 11.32Q76.94 10.98 76.76 10.73Q76.58 10.48 76.26 10.33Q75.93 10.19 75.47 10.19L74.82 10.19L74.82 9.18L75.47 9.18Q75.85 9.18 76.13 9.05Q76.42 8.91 76.58 8.67Q76.75 8.43 76.75 8.12Q76.75 7.81 76.61 7.58Q76.47 7.35 76.21 7.22Q75.95 7.09 75.61 7.09Q75.28 7.09 74.99 7.21Q74.71 7.33 74.53 7.55Q74.36 7.77 74.35 8.08L73.09 8.08Q73.10 7.47 73.44 7.01Q73.78 6.55 74.35 6.29Q74.92 6.03 75.62 6.03Q76.35 6.03 76.89 6.30Q77.42 6.57 77.72 7.03Q78.01 7.49 78.01 8.04Q78.01 8.65 77.65 9.07Q77.29 9.48 76.70 9.62L76.70 9.67Q77.21 9.74 77.56 9.97Q77.91 10.21 78.10 10.57Q78.28 10.93 78.28 11.38Q78.28 11.99 77.93 12.47Q77.58 12.95 76.98 13.22Q76.38 13.50 75.60 13.50"/></svg>
