<svg xmlns="http://www.w3.org/2000/svg" width="100" height="19" viewBox="0 0 100 19" role="img" aria-label="AIA 2x2 · Paired: some AI ideas and writing"><title>AIA 2x2 · Paired: some AI ideas and writing</title><rect x="0.5" y="0.5" width="99" height="18" rx="2.5" fill="#FFFFFF" stroke="#888780"/><rect x="4" y="2.5" width="4" height="4" rx="0.72" fill="#D9D7CF"/><rect x="9" y="2.5" width="4" height="4" rx="0.72" fill="#D9D7CF"/><rect x="14" y="2.5" width="4" height="4" rx="0.72" fill="#D9D7CF"/><rect x="4" y="7.5" width="4" height="4" rx="0.72" fill="#D9D7CF"/><rect x="9" y="7.5" width="4" height="4" rx="0.72" fill="#2C2C2A"/><rect x="14" y="7.5" width="4" height="4" rx="0.72" fill="#D9D7CF"/><rect x="4" y="12.5" width="4" height="4" rx="0.72" fill="#D9D7CF"/><rect x="9" y="12.5" width="4" height="4" rx="0.72" fill="#D9D7CF"/><rect x="14" y="12.5" width="4" height="4" rx="0.72" fill="#D9D7CF"/><path fill="#5F5E5A" d="M41.55 13.40L40.34 13.40L42.93 6.12L44.30 6.12L46.94 13.40L45.73 13.40L45.06 11.48L42.20 11.48L41.55 13.40M42.52 10.55L44.73 10.55L44.31 9.35Q44.15 8.86 43.95 8.19Q43.80 7.67 43.61 7Q43.43 7.68 43.27 8.20Q43.07 8.88 42.92 9.35M47.99 6.12L49.10 6.12L49.10 13.40L47.99 13.40M51.37 13.40L50.16 13.40L52.75 6.12L54.11 6.12L56.75 13.40L55.54 13.40L54.88 11.48L52.01 11.48L51.37 13.40M52.33 10.55L54.55 10.55L54.13 9.35Q53.96 8.86 53.77 8.19Q53.61 7.67 53.43 7Q53.24 7.68 53.09 8.20Q52.89 8.88 52.74 9.35"/><path fill="#2C2C2A" d="M66.13 13.40L61.15 13.40L61.15 12.46L63.68 9.98Q64.04 9.61 64.28 9.33Q64.52 9.04 64.64 8.78Q64.77 8.51 64.77 8.20Q64.77 7.86 64.61 7.61Q64.45 7.36 64.18 7.23Q63.91 7.09 63.56 7.09Q63.20 7.09 62.92 7.24Q62.65 7.38 62.51 7.66Q62.36 7.93 62.36 8.30L61.12 8.30Q61.12 7.61 61.43 7.10Q61.75 6.59 62.30 6.31Q62.85 6.03 63.58 6.03Q64.30 6.03 64.86 6.30Q65.41 6.57 65.71 7.05Q66.02 7.53 66.02 8.14Q66.02 8.54 65.87 8.93Q65.72 9.31 65.33 9.80Q64.94 10.28 64.23 10.97L62.96 12.26L62.96 12.31L66.13 12.31M68.35 13.40L66.97 13.40L68.78 10.60L67.08 7.94L68.48 7.94L69.04 8.87Q69.28 9.28 69.47 9.68Q69.53 9.81 69.60 9.94Q69.66 9.81 69.72 9.68Q69.90 9.28 70.15 8.87L70.72 7.94L72.09 7.94L70.36 10.63L72.17 13.40L70.79 13.40L70.11 12.31Q69.87 11.89 69.68 11.50Q69.62 11.38 69.56 11.26Q69.50 11.38 69.45 11.50Q69.26 11.89 69.02 12.31M78.05 13.40L73.07 13.40L73.07 12.46L75.60 9.98Q75.95 9.61 76.20 9.33Q76.44 9.04 76.56 8.78Q76.69 8.51 76.69 8.20Q76.69 7.86 76.53 7.61Q76.37 7.36 76.10 7.23Q75.83 7.09 75.48 7.09Q75.11 7.09 74.84 7.24Q74.57 7.38 74.43 7.66Q74.28 7.93 74.28 8.30L73.03 8.30Q73.03 7.61 73.35 7.10Q73.66 6.59 74.22 6.31Q74.77 6.03 75.50 6.03Q76.22 6.03 76.77 6.30Q77.33 6.57 77.63 7.05Q77.94 7.53 77.94 8.14Q77.94 8.54 77.79 8.93Q77.64 9.31 77.25 9.80Q76.86 10.28 76.14 10.97L74.88 12.26L74.88 12.31L78.05 12.31"/></svg>
